<svg width="20" height="20" viewBox="0 0 20 20" fill="none" xmlns="http://www.w3.org/2000/svg">
<path d="M12.944 2.00312L10.9952 2C8.80579 2 7.39088 3.44892 7.39088 5.69152V7.39356H5.43143C5.26211 7.39356 5.125 7.53057 5.125 7.69957V10.1656C5.125 10.3346 5.26227 10.4715 5.43143 10.4715H7.39088V16.6941C7.39088 16.8631 7.528 17 7.69731 17H10.2538C10.4232 17 10.5603 16.863 10.5603 16.6941V10.4715H12.8513C13.0206 10.4715 13.1578 10.3346 13.1578 10.1656L13.1587 7.69957C13.1587 7.61843 13.1263 7.54071 13.069 7.48329C13.0116 7.42586 12.9334 7.39356 12.8521 7.39356H10.5603V5.95072C10.5603 5.25723 10.7258 4.90518 11.6309 4.90518L12.9437 4.90472C13.1129 4.90472 13.25 4.7677 13.25 4.59886V2.30898C13.25 2.14029 13.113 2.00343 12.944 2.00312Z" fill="black"/>
</svg>
