<svg width="28" height="28" viewBox="0 0 28 28" fill="none" xmlns="http://www.w3.org/2000/svg">
<circle cx="14.12" cy="14.12" r="3.12" fill="white"/>
<path fill-rule="evenodd" clip-rule="evenodd" d="M5 10C5 7.23858 7.23858 5 10 5H18C20.7614 5 23 7.23858 23 10V18C23 20.7614 20.7614 23 18 23H10C7.23858 23 5 20.7614 5 18V10ZM19.16 14.12C19.16 16.9035 16.9035 19.16 14.12 19.16C11.3365 19.16 9.08002 16.9035 9.08002 14.12C9.08002 11.3365 11.3365 9.08002 14.12 9.08002C16.9035 9.08002 19.16 11.3365 19.16 14.12ZM20.12 9.08001C20.6502 9.08001 21.08 8.65021 21.08 8.12001C21.08 7.58982 20.6502 7.16001 20.12 7.16001C19.5898 7.16001 19.16 7.58982 19.16 8.12001C19.16 8.65021 19.5898 9.08001 20.12 9.08001Z" fill="white"/>
</svg>
