<svg width="23" height="26" viewBox="0 0 23 26" fill="none" xmlns="http://www.w3.org/2000/svg">
<g filter="url(#filter0_d_14_2314)">
<path d="M18.375 6.26655C17.8459 6.5027 17.2782 6.66284 16.6818 6.73434C17.2908 6.36699 17.757 5.78431 17.9779 5.09214C17.4067 5.43234 16.7761 5.67936 16.1041 5.81327C15.5661 5.23511 14.8008 4.875 13.9519 4.875C12.3233 4.875 11.0029 6.20504 11.0029 7.84452C11.0029 8.07704 11.0289 8.30414 11.0792 8.52131C8.62876 8.39734 6.45585 7.21479 5.00155 5.41786C4.74734 5.85579 4.60272 6.36606 4.60272 6.91077C4.60272 7.94133 5.12372 8.85064 5.9142 9.38264C5.43093 9.36636 4.9764 9.23245 4.57848 9.00987V9.04697C4.57848 10.4856 5.59532 11.6862 6.94362 11.9595C6.69659 12.0264 6.4361 12.0635 6.16661 12.0635C5.97619 12.0635 5.79204 12.0445 5.61148 12.0083C5.98695 13.1891 7.07567 14.0477 8.36559 14.0713C7.35683 14.8675 6.08487 15.3407 4.70334 15.3407C4.46531 15.3407 4.23085 15.3262 4 15.3C5.30519 16.1442 6.85471 16.6364 8.5201 16.6364C13.9447 16.6364 16.9099 12.1106 16.9099 8.18563L16.9001 7.8011C17.4794 7.38487 17.9806 6.86191 18.375 6.26655Z" fill="#E2635D"/>
</g>
<defs>
<filter id="filter0_d_14_2314" x="-3" y="0" width="28" height="28" filterUnits="userSpaceOnUse" color-interpolation-filters="sRGB">
<feFlood flood-opacity="0" result="BackgroundImageFix"/>
<feColorMatrix in="SourceAlpha" type="matrix" values="0 0 0 0 0 0 0 0 0 0 0 0 0 0 0 0 0 0 127 0" result="hardAlpha"/>
<feOffset dy="4"/>
<feGaussianBlur stdDeviation="2"/>
<feComposite in2="hardAlpha" operator="out"/>
<feColorMatrix type="matrix" values="0 0 0 0 0 0 0 0 0 0 0 0 0 0 0 0 0 0 0.25 0"/>
<feBlend mode="normal" in2="BackgroundImageFix" result="effect1_dropShadow_14_2314"/>
<feBlend mode="normal" in="SourceGraphic" in2="effect1_dropShadow_14_2314" result="shape"/>
</filter>
</defs>
</svg>
