<svg width="20" height="20" viewBox="0 0 20 20" fill="none" xmlns="http://www.w3.org/2000/svg">
<path d="M17.375 6.26658C16.8459 6.50273 16.2782 6.66287 15.6818 6.73437C16.2908 6.36702 16.757 5.78434 16.9779 5.09217C16.4067 5.43237 15.7761 5.67939 15.1041 5.8133C14.5661 5.23514 13.8008 4.87503 12.9519 4.87503C11.3233 4.87503 10.0029 6.20507 10.0029 7.84455C10.0029 8.07707 10.0289 8.30417 10.0792 8.52134C7.62876 8.39737 5.45585 7.21482 4.00155 5.41789C3.74734 5.85582 3.60272 6.3661 3.60272 6.9108C3.60272 7.94136 4.12372 8.85067 4.9142 9.38267C4.43093 9.36639 3.9764 9.23248 3.57848 9.0099V9.047C3.57848 10.4856 4.59532 11.6863 5.94362 11.9595C5.69659 12.0265 5.4361 12.0636 5.16661 12.0636C4.97619 12.0636 4.79204 12.0446 4.61148 12.0084C4.98695 13.1891 6.07567 14.0478 7.36559 14.0713C6.35683 14.8675 5.08487 15.3407 3.70334 15.3407C3.46531 15.3407 3.23085 15.3263 3 15.3C4.30519 16.1442 5.85471 16.6364 7.5201 16.6364C12.9447 16.6364 15.9099 12.1106 15.9099 8.18567L15.9001 7.80114C16.4794 7.3849 16.9806 6.86194 17.375 6.26658Z" fill="black"/>
</svg>
