<svg width="23" height="20" viewBox="0 0 23 20" fill="none" xmlns="http://www.w3.org/2000/svg">
<g clip-path="url(#clip0_14_2318)">
<path d="M20.2406 14.6803C20.2194 14.6345 20.1996 14.5966 20.1813 14.5662C19.8776 14.0185 19.2974 13.3463 18.441 12.5493L18.4229 12.531L18.4138 12.5221L18.4046 12.5129H18.3955C18.0068 12.1418 17.7606 11.8922 17.6575 11.7645C17.4689 11.5211 17.4267 11.2748 17.5297 11.0252C17.6026 10.8366 17.8761 10.4383 18.3498 9.82987C18.5989 9.5074 18.7963 9.24894 18.942 9.05423C19.9929 7.65489 20.4485 6.7607 20.3088 6.3713L20.2545 6.2803C20.218 6.22551 20.1239 6.17539 19.9722 6.12969C19.8201 6.08408 19.6258 6.07653 19.3889 6.10693L16.7648 6.12508C16.7223 6.11 16.6616 6.1114 16.5825 6.12969C16.5035 6.14797 16.464 6.15714 16.464 6.15714L16.4184 6.18L16.3821 6.20745C16.3517 6.22561 16.3183 6.25754 16.2818 6.30318C16.2455 6.34867 16.2152 6.40204 16.1909 6.46287C15.9053 7.19901 15.5804 7.88343 15.2159 8.5161C14.9911 8.89336 14.7847 9.22031 14.5962 9.49714C14.4079 9.77387 14.25 9.97776 14.1225 10.1085C13.9949 10.2393 13.8797 10.3441 13.7762 10.4233C13.6729 10.5025 13.5941 10.5359 13.5395 10.5237C13.4847 10.5114 13.4332 10.4993 13.3844 10.4872C13.2994 10.4324 13.231 10.3579 13.1795 10.2636C13.1277 10.1693 13.0929 10.0506 13.0747 9.90763C13.0565 9.76457 13.0458 9.64151 13.0428 9.53805C13.0399 9.43471 13.0412 9.28855 13.0474 9.09997C13.0537 8.91129 13.0565 8.78363 13.0565 8.7167C13.0565 8.48548 13.061 8.23454 13.0701 7.96381C13.0793 7.69309 13.0867 7.47858 13.0929 7.32056C13.0991 7.16238 13.102 6.99502 13.102 6.81858C13.102 6.64215 13.0913 6.50378 13.0701 6.40335C13.0491 6.30305 13.017 6.2057 12.9747 6.11131C12.932 6.01702 12.8697 5.94408 12.7879 5.8923C12.7059 5.84058 12.6039 5.79954 12.4826 5.76905C12.1607 5.69608 11.7507 5.65661 11.2525 5.65047C10.1227 5.63832 9.39678 5.71139 9.07483 5.86957C8.94728 5.93641 8.83185 6.02773 8.72864 6.14324C8.61927 6.27713 8.60402 6.3502 8.68297 6.36222C9.04748 6.41691 9.30554 6.54773 9.45741 6.75456L9.51214 6.86416C9.55472 6.94324 9.59723 7.08324 9.63977 7.28396C9.68224 7.48469 9.70966 7.70674 9.72172 7.94997C9.75204 8.39416 9.75204 8.77439 9.72172 9.0907C9.69131 9.40713 9.66258 9.65347 9.63517 9.8299C9.60776 10.0063 9.56678 10.1493 9.51214 10.2588C9.45741 10.3683 9.421 10.4352 9.40274 10.4595C9.38452 10.4838 9.36933 10.4991 9.35727 10.5051C9.27831 10.5354 9.1962 10.5509 9.11122 10.5509C9.0261 10.5509 8.92289 10.5082 8.80143 10.423C8.68 10.3378 8.55398 10.2207 8.42336 10.0717C8.29273 9.92256 8.14542 9.7142 7.98135 9.44654C7.81742 9.17888 7.64732 8.86255 7.47115 8.49753L7.32541 8.23281C7.23429 8.06251 7.10983 7.81455 6.95189 7.48913C6.79386 7.16359 6.65417 6.84869 6.53274 6.5445C6.4842 6.41675 6.41128 6.31948 6.3141 6.25255L6.2685 6.2251C6.23818 6.20081 6.18951 6.17501 6.12275 6.14752C6.05589 6.12007 5.98613 6.10038 5.91318 6.08826L3.41662 6.10642C3.16151 6.10642 2.98841 6.1643 2.89726 6.27991L2.86079 6.3346C2.84257 6.36506 2.83337 6.41371 2.83337 6.48067C2.83337 6.5476 2.8516 6.62975 2.88807 6.72701C3.25252 7.58489 3.64886 8.41225 4.07707 9.20921C4.50528 10.0062 4.87739 10.6482 5.19318 11.1346C5.50902 11.6213 5.83097 12.0807 6.159 12.5125C6.48704 12.9445 6.70418 13.2214 6.81042 13.343C6.91679 13.4648 7.00034 13.5559 7.06107 13.6167L7.2889 13.8357C7.43468 13.9818 7.64875 14.1567 7.93122 14.3604C8.21375 14.5643 8.52653 14.765 8.86973 14.9629C9.21299 15.1605 9.61232 15.3217 10.0679 15.4464C10.5235 15.5712 10.9669 15.6213 11.3982 15.5971H12.4461C12.6586 15.5787 12.8196 15.5118 12.929 15.3963L12.9653 15.3506C12.9896 15.3142 13.0125 15.2578 13.0335 15.1819C13.0548 15.1059 13.0654 15.0221 13.0654 14.931C13.0592 14.6694 13.0791 14.4337 13.1245 14.2238C13.17 14.014 13.2217 13.8558 13.2796 13.7493C13.3375 13.6429 13.4028 13.5531 13.4754 13.4803C13.5483 13.4073 13.6002 13.3631 13.6306 13.3479C13.6609 13.3326 13.685 13.3222 13.7032 13.3159C13.849 13.2673 14.0206 13.3144 14.2182 13.4575C14.4156 13.6005 14.6008 13.777 14.7741 13.9868C14.9472 14.1968 15.1552 14.4324 15.3981 14.6939C15.6412 14.9556 15.8537 15.1501 16.0359 15.278L16.2181 15.3875C16.3397 15.4606 16.4977 15.5275 16.6921 15.5884C16.8861 15.6492 17.0562 15.6644 17.2022 15.634L19.5346 15.5975C19.7653 15.5975 19.9449 15.5593 20.0722 15.4834C20.1998 15.4073 20.2756 15.3236 20.3 15.2324C20.3244 15.1412 20.3257 15.0377 20.3046 14.922C20.283 14.8066 20.2618 14.7259 20.2406 14.6803Z" fill="#E2635D"/>
</g>
<defs>
<clipPath id="clip0_14_2318">
<rect width="23" height="20" fill="white"/>
</clipPath>
</defs>
</svg>
