<svg width="28" height="28" viewBox="0 0 28 28" fill="none" xmlns="http://www.w3.org/2000/svg">
<path d="M23.9766 18.7322C23.9522 18.6796 23.9295 18.636 23.9084 18.601C23.5593 17.9712 22.892 17.1981 21.9071 16.2816L21.8863 16.2606L21.8758 16.2503L21.8653 16.2397H21.8547C21.4077 15.8129 21.1247 15.526 21.0061 15.379C20.7892 15.0992 20.7406 14.8159 20.8592 14.5289C20.9429 14.312 21.2575 13.854 21.8022 13.1542C22.0887 12.7834 22.3157 12.4862 22.4832 12.2623C23.6918 10.653 24.2158 9.62469 24.055 9.17688L23.9926 9.07223C23.9507 9.00923 23.8424 8.95159 23.668 8.89903C23.4931 8.84658 23.2697 8.8379 22.9972 8.87286L19.9795 8.89374C19.9306 8.87639 19.8608 8.87801 19.7699 8.89903C19.679 8.92006 19.6336 8.93061 19.6336 8.93061L19.5811 8.95689L19.5394 8.98846C19.5045 9.00934 19.466 9.04606 19.4241 9.09855C19.3823 9.15086 19.3474 9.21224 19.3196 9.28219C18.991 10.1287 18.6175 10.9158 18.1982 11.6434C17.9398 12.0773 17.7024 12.4532 17.4856 12.7716C17.2691 13.0898 17.0875 13.3243 16.9409 13.4746C16.7941 13.6251 16.6616 13.7456 16.5426 13.8366C16.4238 13.9277 16.3331 13.9662 16.2703 13.9521C16.2074 13.9381 16.1481 13.9241 16.092 13.9101C15.9943 13.8471 15.9157 13.7614 15.8564 13.653C15.7969 13.5446 15.7568 13.4081 15.7358 13.2437C15.715 13.0791 15.7027 12.9376 15.6991 12.8186C15.6959 12.6998 15.6974 12.5317 15.7045 12.3149C15.7117 12.0979 15.715 11.9511 15.715 11.8741C15.715 11.6082 15.7202 11.3196 15.7306 11.0083C15.7411 10.6969 15.7497 10.4503 15.7568 10.2685C15.7639 10.0866 15.7673 9.89416 15.7673 9.69126C15.7673 9.48836 15.7549 9.32924 15.7306 9.21375C15.7065 9.0984 15.6695 8.98644 15.6208 8.8779C15.5718 8.76946 15.5001 8.68558 15.406 8.62603C15.3117 8.56656 15.1945 8.51936 15.055 8.4843C14.6847 8.40038 14.2132 8.35499 13.6403 8.34793C12.3411 8.33396 11.5063 8.41799 11.136 8.5999C10.9893 8.67676 10.8566 8.78178 10.7379 8.91462C10.6121 9.06859 10.5946 9.15262 10.6854 9.16644C11.1046 9.22933 11.4013 9.37978 11.576 9.61764L11.6389 9.74368C11.6879 9.83461 11.7368 9.99561 11.7857 10.2264C11.8345 10.4573 11.8661 10.7126 11.8799 10.9924C11.9148 11.5032 11.9148 11.9404 11.8799 12.3042C11.845 12.6681 11.8119 12.9514 11.7804 13.1543C11.7489 13.3572 11.7018 13.5216 11.6389 13.6475C11.576 13.7734 11.5341 13.8504 11.5131 13.8783C11.4922 13.9063 11.4747 13.9239 11.4608 13.9308C11.37 13.9656 11.2756 13.9834 11.1779 13.9834C11.08 13.9834 10.9613 13.9343 10.8216 13.8363C10.682 13.7384 10.537 13.6037 10.3868 13.4323C10.2366 13.2608 10.0672 13.0212 9.87853 12.7134C9.69 12.4056 9.49438 12.0418 9.2918 11.622L9.12419 11.3176C9.01941 11.1218 8.87627 10.8366 8.69464 10.4624C8.5129 10.088 8.35227 9.72589 8.21262 9.37607C8.1568 9.22915 8.07294 9.1173 7.96119 9.04033L7.90874 9.00875C7.87388 8.98082 7.81791 8.95115 7.74113 8.91954C7.66424 8.88797 7.58402 8.86532 7.50012 8.85139L4.62908 8.87227C4.3357 8.87227 4.13664 8.93884 4.03182 9.07179L3.98987 9.13468C3.96892 9.16971 3.95835 9.22566 3.95835 9.30266C3.95835 9.37963 3.9793 9.4741 4.02125 9.58595C4.44037 10.5725 4.89615 11.524 5.3886 12.4405C5.88104 13.357 6.30897 14.0953 6.67212 14.6546C7.03535 15.2144 7.40558 15.7427 7.78282 16.2393C8.16007 16.7361 8.40978 17.0544 8.53195 17.1943C8.65427 17.3344 8.75036 17.4392 8.8202 17.5091L9.0822 17.761C9.24985 17.9289 9.49603 18.13 9.82087 18.3644C10.1458 18.5988 10.5055 18.8297 10.9002 19.0572C11.2949 19.2844 11.7541 19.4698 12.2781 19.6132C12.802 19.7568 13.3119 19.8144 13.8079 19.7866H15.0129C15.2573 19.7654 15.4425 19.6885 15.5683 19.5556L15.61 19.503C15.6381 19.4613 15.6643 19.3964 15.6885 19.3091C15.713 19.2217 15.7252 19.1253 15.7252 19.0205C15.7181 18.7197 15.7409 18.4487 15.7932 18.2073C15.8454 17.966 15.9049 17.7841 15.9715 17.6616C16.0381 17.5392 16.1132 17.4359 16.1967 17.3522C16.2805 17.2683 16.3401 17.2174 16.3752 17.1999C16.4099 17.1823 16.4377 17.1704 16.4587 17.1632C16.6263 17.1073 16.8236 17.1614 17.0509 17.326C17.2779 17.4904 17.4909 17.6934 17.6901 17.9347C17.8892 18.1762 18.1284 18.4471 18.4078 18.7479C18.6874 19.0488 18.9318 19.2725 19.1413 19.4196L19.3508 19.5456C19.4907 19.6296 19.6723 19.7066 19.8959 19.7765C20.119 19.8464 20.3146 19.8639 20.4825 19.829L23.1648 19.7871C23.4301 19.7871 23.6365 19.7431 23.783 19.6558C23.9297 19.5683 24.0169 19.472 24.045 19.3672C24.073 19.2623 24.0745 19.1433 24.0503 19.0102C24.0255 18.8775 24.001 18.7847 23.9766 18.7322Z" fill="white"/>
</svg>
